<?xml version="1.0" encoding="UTF-8"?>
<svg version="1.1" xmlns="http://www.w3.org/2000/svg" width="698" height="509">
<path d="M0 0 C14.52 0 29.04 0 44 0 C44 4.95 44 9.9 44 15 C38.39 15 32.78 15 27 15 C27 15.99 27 16.98 27 18 C32.61 18 38.22 18 44 18 C45.39935701 28.84501681 44.92665421 39.11181298 44 50 C38.39 50 32.78 50 27 50 C27 51.32 27 52.64 27 54 C32.61 54 38.22 54 44 54 C44 58.62 44 63.24 44 68 C38.39 68 32.78 68 27 68 C27 69.32 27 70.64 27 72 C32.61 72 38.22 72 44 72 C44 76.62 44 81.24 44 86 C38.39 86 32.78 86 27 86 C27 99.86 27 113.72 27 128 C23.37 128 19.74 128 16 128 C16 114.14 16 100.28 16 86 C10.72 86 5.44 86 0 86 C0 81.38 0 76.76 0 72 C5.28 72 10.56 72 16 72 C16 70.68 16 69.36 16 68 C-6.67848111 67.79078892 -29.33154588 68.39559362 -52 69 C-52 69.99 -52 70.98 -52 72 C-38.14 72 -24.28 72 -10 72 C-10 76.62 -10 81.24 -10 86 C-26.335 86.495 -26.335 86.495 -43 87 C-36.62381553 90.74059534 -36.62381553 90.74059534 -30.0625 92.25 C-29.10472656 92.39953125 -28.14695313 92.5490625 -27.16015625 92.703125 C-26.44730469 92.80109375 -25.73445313 92.8990625 -25 93 C-25 96.3 -25 99.6 -25 103 C-35.45344814 103.68547201 -43.91815572 100.71389022 -51.9921875 94 C-56.35019909 89.65894565 -59.33104937 84.49927967 -62 79 C-62.33 81.31 -62.66 83.62 -63 86 C-64.32 86 -65.64 86 -67 86 C-67 91.28 -67 96.56 -67 102 C-70.3 102 -73.6 102 -77 102 C-77 96.72 -77 91.44 -77 86 C-86.9 86 -96.8 86 -107 86 C-107 81.38 -107 76.76 -107 72 C-97.1 72 -87.2 72 -77 72 C-77 70.68 -77 69.36 -77 68 C-86.9 68 -96.8 68 -107 68 C-107 63.38 -107 58.76 -107 54 C-97.43 54 -87.86 54 -78 54 C-78 52.68 -78 51.36 -78 50 C-87.57 50 -97.14 50 -107 50 C-107 45.71 -107 41.42 -107 37 C-109.64 37 -112.28 37 -115 37 C-115 41.29 -115 45.58 -115 50 C-116.98 50 -118.96 50 -121 50 C-121 51.32 -121 52.64 -121 54 C-119.02 54 -117.04 54 -115 54 C-115 58.62 -115 63.24 -115 68 C-116.98 68 -118.96 68 -121 68 C-121 69.32 -121 70.64 -121 72 C-119.02 72 -117.04 72 -115 72 C-115 76.62 -115 81.24 -115 86 C-116.98 86 -118.96 86 -121 86 C-121 91.28 -121 96.56 -121 102 C-124.3 102 -127.6 102 -131 102 C-131 96.72 -131 91.44 -131 86 C-132.32 86 -133.64 86 -135 86 C-135 95.24 -135 104.48 -135 114 C-138.63 114 -142.26 114 -146 114 C-146 104.76 -146 95.52 -146 86 C-150.29 86 -154.58 86 -159 86 C-159 81.38 -159 76.76 -159 72 C-154.71 72 -150.42 72 -146 72 C-146 70.68 -146 69.36 -146 68 C-150.29 68 -154.58 68 -159 68 C-159 67.34 -159 66.68 -159 66 C-160.98 66 -162.96 66 -165 66 C-165 90.42 -165 114.84 -165 140 C-168.63 140 -172.26 140 -176 140 C-176 115.91 -176 91.82 -176 67 C-178.97 67 -181.94 67 -185 67 C-185 63.7 -185 60.4 -185 57 C-181.7 57 -178.4 57 -175 57 C-175.04640625 56.01 -175.0928125 55.02 -175.140625 54 C-175.61382591 39.73534052 -175.61382591 39.73534052 -171 34 C-167.83297416 30.63340815 -164.41628574 28.42879833 -160 27 C-159.67 24.03 -159.34 21.06 -159 18 C-144.48 18 -129.96 18 -115 18 C-115 20.97 -115 23.94 -115 27 C-112.36 27 -109.72 27 -107 27 C-107 24.03 -107 21.06 -107 18 C-92.48 18 -77.96 18 -63 18 C-63 22.95 -63 27.9 -63 33 C-68.94 33.495 -68.94 33.495 -75 34 C-73.26043342 35.73956658 -70.8063378 35.37190386 -68.4375 35.5625 C-66.643125 35.706875 -64.84875 35.85125 -63 36 C-63 40.62 -63 45.24 -63 50 C-64.65 50 -66.3 50 -68 50 C-68 51.32 -68 52.64 -68 54 C-66.35 54 -64.7 54 -63 54 C-62.60167969 53.25234375 -62.20335937 52.5046875 -61.79296875 51.734375 C-61.26316406 50.74953125 -60.73335938 49.7646875 -60.1875 48.75 C-59.66542969 47.77546875 -59.14335937 46.8009375 -58.60546875 45.796875 C-57 43 -57 43 -55.36328125 40.828125 C-53.80512069 38.93807301 -53.80512069 38.93807301 -53 36 C-50.4375 34.8125 -50.4375 34.8125 -48 34 C-49.65 33.67 -51.3 33.34 -53 33 C-53 28.05 -53 23.1 -53 18 C-38.81 18 -24.62 18 -10 18 C-10 22.29 -10 26.58 -10 31 C-8.35 31.66 -6.7 32.32 -5 33 C-4.24332031 33.53238281 -3.48664063 34.06476563 -2.70703125 34.61328125 C0.95502095 36.48922429 4.30518478 36.32716514 8.3125 36.1875 C9.05306641 36.17396484 9.79363281 36.16042969 10.55664062 36.14648438 C12.37141075 36.11135979 14.18580288 36.05755972 16 36 C16 35.01 16 34.02 16 33 C10.72 33 5.44 33 0 33 C0 28.05 0 23.1 0 18 C5.28 18 10.56 18 16 18 C16 17.01 16 16.02 16 15 C10.72 15 5.44 15 0 15 C0 10.05 0 5.1 0 0 Z M-135 33 C-135 33.99 -135 34.98 -135 36 C-133.68 36 -132.36 36 -131 36 C-131 35.01 -131 34.02 -131 33 C-132.32 33 -133.64 33 -135 33 Z M-160 38 C-164.00504252 42.755988 -165.12848652 44.92226671 -165.0625 51.125 C-165.05347656 52.22070312 -165.04445313 53.31640625 -165.03515625 54.4453125 C-165.02355469 55.28835938 -165.01195312 56.13140625 -165 57 C-163.02 57 -161.04 57 -159 57 C-159 56.01 -159 55.02 -159 54 C-154.71 54 -150.42 54 -146 54 C-146 52.68 -146 51.36 -146 50 C-150.29 50 -154.58 50 -159 50 C-159 46.04 -159 42.08 -159 38 C-159.33 38 -159.66 38 -160 38 Z M-135 50 C-135 51.32 -135 52.64 -135 54 C-133.68 54 -132.36 54 -131 54 C-131 52.68 -131 51.36 -131 50 C-132.32 50 -133.64 50 -135 50 Z M-10 43 C-10 45.31 -10 47.62 -10 50 C-22.54 50 -35.08 50 -48 50 C-48.66 51.32 -49.32 52.64 -50 54 C-36.8 54 -23.6 54 -10 54 C-10 54.99 -10 55.98 -10 57 C-6.7 57 -3.4 57 0 57 C-1.37908991 51.48364034 -4.1421479 47.13041773 -8 43 C-8.66 43 -9.32 43 -10 43 Z M9 50 C9.33 51.32 9.66 52.64 10 54 C11.98 54 13.96 54 16 54 C16 52.68 16 51.36 16 50 C13.69 50 11.38 50 9 50 Z M-135 68 C-135 69.32 -135 70.64 -135 72 C-133.68 72 -132.36 72 -131 72 C-131 70.68 -131 69.36 -131 68 C-132.32 68 -133.64 68 -135 68 Z M-67 68 C-67 69.32 -67 70.64 -67 72 C-65.68 72 -64.36 72 -63 72 C-63 70.68 -63 69.36 -63 68 C-64.32 68 -65.64 68 -67 68 Z " fill="#FEFCFB" transform="translate(246,218)"/>
<path d="M0 0 C14.19 0 28.38 0 43 0 C43 2.97 43 5.94 43 9 C43.86625 9.103125 44.7325 9.20625 45.625 9.3125 C49.16683123 10.03398414 51.84312042 11.27123261 55 13 C55 8.71 55 4.42 55 0 C69.19 0 83.38 0 98 0 C98 3.3 98 6.6 98 10 C100.97 9.505 100.97 9.505 104 9 C104 6.03 104 3.06 104 0 C118.52 0 133.04 0 148 0 C148 4.95 148 9.9 148 15 C140.08 15.495 140.08 15.495 132 16 C136.54601728 18.27300864 143.08679597 17.68734156 148 18 C148 22.62 148 27.24 148 32 C147.01 32.33 146.02 32.66 145 33 C145 33.99 145 34.98 145 36 C145.99 36 146.98 36 148 36 C148 40.62 148 45.24 148 50 C133.48 50 118.96 50 104 50 C104 49.34 104 48.68 104 48 C102.02 48 100.04 48 98 48 C98 48.66 98 49.32 98 50 C92.72 50 87.44 50 82 50 C82.495 51.98 82.495 51.98 83 54 C87.95 54 92.9 54 98 54 C98 58.62 98 63.24 98 68 C96.35 68.33 94.7 68.66 93 69 C98.33931188 71.86034565 103.07943568 73.73130765 109 75 C109 77.97 109 80.94 109 84 C99.33650032 84.63367211 91.75486816 82.69367507 84.31201172 76.23974609 C82.1086203 74.23438009 79.9946367 72.21454829 78 70 C78 69.34 78 68.68 78 68 C74.04 68 70.08 68 66 68 C66 73.28 66 78.56 66 84 C62.7 84 59.4 84 56 84 C55.36498781 75.67680448 54.92977435 67.41205665 55 59.0625 C55.03498977 52.9709791 54.97146028 46.8982242 54.6875 40.8125 C54.65366211 39.78878296 54.65366211 39.78878296 54.61914062 38.74438477 C54.27727503 32.45949666 52.65559084 27.85749216 48.4375 23.125 C46.20114199 20.99612842 46.20114199 20.99612842 44 20 C43.67 23.96 43.34 27.92 43 32 C32.77 32 22.54 32 12 32 C12 33.32 12 34.64 12 36 C22.23 36 32.46 36 43 36 C43 40.62 43 45.24 43 50 C32.77 50 22.54 50 12 50 C12 51.32 12 52.64 12 54 C22.23 54 32.46 54 43 54 C43 58.62 43 63.24 43 68 C32.77 68 22.54 68 12 68 C12 73.28 12 78.56 12 84 C8.7 84 5.4 84 2 84 C2 78.72 2 73.44 2 68 C1.34 68 0.68 68 0 68 C0 63.38 0 58.76 0 54 C0.66 54 1.32 54 2 54 C2 52.68 2 51.36 2 50 C1.34 50 0.68 50 0 50 C0 45.38 0 40.76 0 36 C0.66 36 1.32 36 2 36 C2 34.68 2 33.36 2 32 C1.34 32 0.68 32 0 32 C0 27.38 0 22.76 0 18 C0.66 18 1.32 18 2 18 C2 17.01 2 16.02 2 15 C1.34 15 0.68 15 0 15 C0 10.05 0 5.1 0 0 Z M57 15 C57.99 16.485 57.99 16.485 59 18 C61.56475883 18.46646514 61.56475883 18.46646514 64.55859375 18.3984375 C65.66654297 18.40230469 66.77449219 18.40617187 67.91601562 18.41015625 C69.07810547 18.39855469 70.24019531 18.38695312 71.4375 18.375 C72.59572266 18.38660156 73.75394531 18.39820313 74.94726562 18.41015625 C76.05650391 18.40628906 77.16574219 18.40242188 78.30859375 18.3984375 C79.83697876 18.39336182 79.83697876 18.39336182 81.39624023 18.38818359 C84.38912965 18.20598028 84.38912965 18.20598028 87 15 C77.1 15 67.2 15 57 15 Z M98 21 C98 24.63 98 28.26 98 32 C94.04 32 90.08 32 86 32 C85.34 33.32 84.68 34.64 84 36 C88.62 36 93.24 36 98 36 C98 36.99 98 37.98 98 39 C99.98 39 101.96 39 104 39 C104 38.01 104 37.02 104 36 C113.9 36 123.8 36 134 36 C133.505 34.02 133.505 34.02 133 32 C123.43 32 113.86 32 104 32 C104 27.71 104 23.42 104 19 C101.89181489 19 99.95740073 20.21703971 98 21 Z M65 32 C65.33 33.32 65.66 34.64 66 36 C68.31 36 70.62 36 73 36 C73.33 34.68 73.66 33.36 74 32 C71.03 32 68.06 32 65 32 Z M66 50 C66 51.32 66 52.64 66 54 C67.98 54 69.96 54 72 54 C71.67 52.68 71.34 51.36 71 50 C69.35 50 67.7 50 66 50 Z " fill="#FDEDEC" transform="translate(362,236)"/>
<path d="M0 0 C14.52 0 29.04 0 44 0 C44 4.95 44 9.9 44 15 C38.39 15 32.78 15 27 15 C27 15.99 27 16.98 27 18 C32.61 18 38.22 18 44 18 C45.39935701 28.84501681 44.92665421 39.11181298 44 50 C38.39 50 32.78 50 27 50 C27 51.32 27 52.64 27 54 C32.61 54 38.22 54 44 54 C44 58.62 44 63.24 44 68 C38.39 68 32.78 68 27 68 C27 69.32 27 70.64 27 72 C32.61 72 38.22 72 44 72 C44 76.62 44 81.24 44 86 C38.39 86 32.78 86 27 86 C27 99.86 27 113.72 27 128 C23.37 128 19.74 128 16 128 C16 114.14 16 100.28 16 86 C10.72 86 5.44 86 0 86 C0 81.38 0 76.76 0 72 C5.28 72 10.56 72 16 72 C16 70.68 16 69.36 16 68 C-6.67848111 67.79078892 -29.33154588 68.39559362 -52 69 C-52 69.99 -52 70.98 -52 72 C-38.14 72 -24.28 72 -10 72 C-10 76.62 -10 81.24 -10 86 C-26.335 86.495 -26.335 86.495 -43 87 C-36.62381553 90.74059534 -36.62381553 90.74059534 -30.0625 92.25 C-29.10472656 92.39953125 -28.14695313 92.5490625 -27.16015625 92.703125 C-26.44730469 92.80109375 -25.73445313 92.8990625 -25 93 C-25 96.3 -25 99.6 -25 103 C-35.4459498 103.68498031 -43.9449598 100.72485924 -51.99609375 93.984375 C-59.16797451 86.88239561 -63.32125347 78.13606218 -63.46801758 68.04785156 C-63.45794678 67.24831055 -63.44787598 66.44876953 -63.4375 65.625 C-63.43065186 64.78936523 -63.42380371 63.95373047 -63.41674805 63.09277344 C-63.16002233 53.21989093 -59.85934276 46.75967014 -54 39 C-53.67 38.01 -53.34 37.02 -53 36 C-50.4375 34.8125 -50.4375 34.8125 -48 34 C-49.65 33.67 -51.3 33.34 -53 33 C-53 28.05 -53 23.1 -53 18 C-38.81 18 -24.62 18 -10 18 C-10 22.29 -10 26.58 -10 31 C-7.525 31.99 -7.525 31.99 -5 33 C-4.24332031 33.53238281 -3.48664063 34.06476563 -2.70703125 34.61328125 C0.95502095 36.48922429 4.30518478 36.32716514 8.3125 36.1875 C9.05306641 36.17396484 9.79363281 36.16042969 10.55664062 36.14648438 C12.37141075 36.11135979 14.18580288 36.05755972 16 36 C16 35.01 16 34.02 16 33 C10.72 33 5.44 33 0 33 C0 28.05 0 23.1 0 18 C5.28 18 10.56 18 16 18 C16 17.01 16 16.02 16 15 C10.72 15 5.44 15 0 15 C0 10.05 0 5.1 0 0 Z M-10 43 C-10 45.31 -10 47.62 -10 50 C-22.54 50 -35.08 50 -48 50 C-48.66 51.32 -49.32 52.64 -50 54 C-36.8 54 -23.6 54 -10 54 C-10 54.99 -10 55.98 -10 57 C-6.7 57 -3.4 57 0 57 C-1.37908991 51.48364034 -4.1421479 47.13041773 -8 43 C-8.66 43 -9.32 43 -10 43 Z M9 50 C9.33 51.32 9.66 52.64 10 54 C11.98 54 13.96 54 16 54 C16 52.68 16 51.36 16 50 C13.69 50 11.38 50 9 50 Z " fill="#FEF6F5" transform="translate(246,218)"/>
<path d="M0 0 C14.19 0 28.38 0 43 0 C43 4.95 43 9.9 43 15 C29.14 15 15.28 15 1 15 C1 15.99 1 16.98 1 18 C14.86 18 28.72 18 43 18 C43 22.62 43 27.24 43 32 C29.14 32 15.28 32 1 32 C1 33.32 1 34.64 1 36 C14.86 36 28.72 36 43 36 C43 40.62 43 45.24 43 50 C29.14 50 15.28 50 1 50 C1 51.32 1 52.64 1 54 C14.86 54 28.72 54 43 54 C43 58.62 43 63.24 43 68 C31.12 68.33 19.24 68.66 7 69 C18.69341793 77.77006345 24.34049817 73.34468327 44 74 C44 52.55 44 31.1 44 9 C47.63 9 51.26 9 55 9 C55 33.75 55 58.5 55 84 C48.07 84.061875 41.14 84.12375 34 84.1875 C30.74189453 84.22846802 30.74189453 84.22846802 27.41796875 84.27026367 C25.6744848 84.27903482 23.93099466 84.28667727 22.1875 84.29296875 C20.8562207 84.3159906 20.8562207 84.3159906 19.49804688 84.33947754 C10.76165906 84.34310963 4.24037906 82.03896643 -2.23828125 76.03125 C-7.43567866 70.03868535 -9.13280449 62.52020795 -9.11352539 54.75073242 C-9.11341209 53.21971138 -9.11341209 53.21971138 -9.11329651 51.65776062 C-9.10813522 50.5680043 -9.10297394 49.47824799 -9.09765625 48.35546875 C-9.0962413 47.2305452 -9.09482635 46.10562164 -9.09336853 44.9466095 C-9.08777931 41.36021241 -9.07522872 37.77387816 -9.0625 34.1875 C-9.05748361 31.75325611 -9.05292094 29.31901124 -9.04882812 26.88476562 C-9.0378134 20.92315571 -9.02108594 14.96158234 -9 9 C-6.03 9 -3.06 9 0 9 C0 6.03 0 3.06 0 0 Z " fill="#FEFDFD" transform="translate(304,236)"/>
<path d="M0 0 C14.52 0 29.04 0 44 0 C44 4.95 44 9.9 44 15 C36.08 15.495 36.08 15.495 28 16 C32.54601728 18.27300864 39.08679597 17.68734156 44 18 C44 22.62 44 27.24 44 32 C42.515 32.495 42.515 32.495 41 33 C41 33.99 41 34.98 41 36 C41.99 36 42.98 36 44 36 C44 40.62 44 45.24 44 50 C29.48 50 14.96 50 0 50 C0 49.34 0 48.68 0 48 C-1.98 48 -3.96 48 -6 48 C-6 48.66 -6 49.32 -6 50 C-11.28 50 -16.56 50 -22 50 C-21.67 51.32 -21.34 52.64 -21 54 C-16.05 54 -11.1 54 -6 54 C-6 58.62 -6 63.24 -6 68 C-8.475 68.495 -8.475 68.495 -11 69 C-5.66068812 71.86034565 -0.92056432 73.73130765 5 75 C5 77.97 5 80.94 5 84 C-4.66349968 84.63367211 -12.24513184 82.69367507 -19.68798828 76.23974609 C-21.8913797 74.23438009 -24.0053633 72.21454829 -26 70 C-26 69.34 -26 68.68 -26 68 C-29.96 68 -33.92 68 -38 68 C-38 63.38 -38 58.76 -38 54 C-35.525 53.505 -35.525 53.505 -33 53 C-32.93941406 51.80761719 -32.87882812 50.61523438 -32.81640625 49.38671875 C-32.73198851 47.82030075 -32.64734113 46.25389512 -32.5625 44.6875 C-32.52318359 43.90181641 -32.48386719 43.11613281 -32.44335938 42.30664062 C-32.40146484 41.54931641 -32.35957031 40.79199219 -32.31640625 40.01171875 C-32.26141968 38.96697388 -32.26141968 38.96697388 -32.20532227 37.90112305 C-32 36 -32 36 -31 33 C-33.64 32.67 -36.28 32.34 -39 32 C-39.34933594 31.15695312 -39.69867188 30.31390625 -40.05859375 29.4453125 C-40.51363281 28.34960938 -40.96867187 27.25390625 -41.4375 26.125 C-42.11619141 24.48917969 -42.11619141 24.48917969 -42.80859375 22.8203125 C-43.49543463 21.19441376 -44.21065887 19.57868226 -45 18 C-44.31599121 18.00636475 -43.63198242 18.01272949 -42.92724609 18.01928711 C-25.00947023 18.2007768 -25.00947023 18.2007768 -8.76953125 11.59375 C-5.78208567 9.87459937 -3.40386598 9.36307904 0 9 C0 6.03 0 3.06 0 0 Z M-6 21 C-6 24.63 -6 28.26 -6 32 C-9.96 32 -13.92 32 -18 32 C-18.66 33.32 -19.32 34.64 -20 36 C-15.38 36 -10.76 36 -6 36 C-6 36.99 -6 37.98 -6 39 C-4.02 39 -2.04 39 0 39 C0 38.01 0 37.02 0 36 C9.9 36 19.8 36 30 36 C29.505 34.02 29.505 34.02 29 32 C19.43 32 9.86 32 0 32 C0 27.71 0 23.42 0 19 C-2.10818511 19 -4.04259927 20.21703971 -6 21 Z " fill="#FEFCFB" transform="translate(466,236)"/>
<path d="M0 0 C14.52 0 29.04 0 44 0 C44 4.95 44 9.9 44 15 C38.39 15 32.78 15 27 15 C27 15.99 27 16.98 27 18 C32.61 18 38.22 18 44 18 C45.39935701 28.84501681 44.92665421 39.11181298 44 50 C38.39 50 32.78 50 27 50 C27 51.32 27 52.64 27 54 C32.61 54 38.22 54 44 54 C44 58.62 44 63.24 44 68 C38.39 68 32.78 68 27 68 C27 69.32 27 70.64 27 72 C32.61 72 38.22 72 44 72 C44 76.62 44 81.24 44 86 C38.39 86 32.78 86 27 86 C27 99.86 27 113.72 27 128 C23.37 128 19.74 128 16 128 C16 114.14 16 100.28 16 86 C10.72 86 5.44 86 0 86 C0 81.38 0 76.76 0 72 C5.28 72 10.56 72 16 72 C16 59.13 16 46.26 16 33 C10.72 33 5.44 33 0 33 C0 28.05 0 23.1 0 18 C5.28 18 10.56 18 16 18 C16 17.01 16 16.02 16 15 C10.72 15 5.44 15 0 15 C0 10.05 0 5.1 0 0 Z " fill="#FEFCFC" transform="translate(246,218)"/>
<path d="M0 0 C1.60004883 0.00966797 1.60004883 0.00966797 3.23242188 0.01953125 C4.88661133 0.04466797 4.88661133 0.04466797 6.57421875 0.0703125 C7.69634766 0.07933594 8.81847656 0.08835938 9.97460938 0.09765625 C12.73719784 0.12116764 15.49934807 0.15403095 18.26171875 0.1953125 C18.45584056 1.67362471 18.64184006 3.15300566 18.82421875 4.6328125 C18.98083984 5.86837891 18.98083984 5.86837891 19.140625 7.12890625 C19.20056641 8.15177734 19.20056641 8.15177734 19.26171875 9.1953125 C17.63158871 10.82544254 15.77369275 10.32366237 13.52734375 10.3359375 C12.07714844 10.36494141 12.07714844 10.36494141 10.59765625 10.39453125 C8.55618459 10.42812509 6.51440261 10.4465944 4.47265625 10.44921875 C-1.66397648 10.57057847 -1.66397648 10.57057847 -6.87890625 13.6171875 C-9.60335181 17.39478009 -9.95609097 19.69161445 -10.30078125 24.3203125 C-10.38457031 25.41601562 -10.46835938 26.51171875 -10.5546875 27.640625 C-10.64556641 28.90519531 -10.64556641 28.90519531 -10.73828125 30.1953125 C-8.75828125 30.1953125 -6.77828125 30.1953125 -4.73828125 30.1953125 C-4.73828125 29.2053125 -4.73828125 28.2153125 -4.73828125 27.1953125 C-0.44828125 27.1953125 3.84171875 27.1953125 8.26171875 27.1953125 C8.59171875 22.9053125 8.92171875 18.6153125 9.26171875 14.1953125 C12.23171875 14.1953125 15.20171875 14.1953125 18.26171875 14.1953125 C19.10465 23.34700947 19.39745281 32.40231743 19.359375 41.58984375 C19.35796005 42.90321213 19.3565451 44.21658051 19.35508728 45.56974792 C19.35132065 49.01374313 19.34154253 52.45769424 19.3303833 55.90167236 C19.32004118 59.43509322 19.31556261 62.9685214 19.31054688 66.50195312 C19.29991321 73.39975921 19.28236604 80.29752918 19.26171875 87.1953125 C15.63171875 87.1953125 12.00171875 87.1953125 8.26171875 87.1953125 C8.26171875 77.9553125 8.26171875 68.7153125 8.26171875 59.1953125 C3.97171875 59.1953125 -0.31828125 59.1953125 -4.73828125 59.1953125 C-4.73828125 54.5753125 -4.73828125 49.9553125 -4.73828125 45.1953125 C-0.44828125 45.1953125 3.84171875 45.1953125 8.26171875 45.1953125 C8.26171875 43.8753125 8.26171875 42.5553125 8.26171875 41.1953125 C3.97171875 41.1953125 -0.31828125 41.1953125 -4.73828125 41.1953125 C-4.73828125 40.5353125 -4.73828125 39.8753125 -4.73828125 39.1953125 C-6.71828125 39.1953125 -8.69828125 39.1953125 -10.73828125 39.1953125 C-10.73828125 63.6153125 -10.73828125 88.0353125 -10.73828125 113.1953125 C-14.36828125 113.1953125 -17.99828125 113.1953125 -21.73828125 113.1953125 C-21.73828125 89.1053125 -21.73828125 65.0153125 -21.73828125 40.1953125 C-24.70828125 40.1953125 -27.67828125 40.1953125 -30.73828125 40.1953125 C-30.73828125 36.8953125 -30.73828125 33.5953125 -30.73828125 30.1953125 C-27.43828125 30.1953125 -24.13828125 30.1953125 -20.73828125 30.1953125 C-20.7846875 29.2053125 -20.83109375 28.2153125 -20.87890625 27.1953125 C-21.35210716 12.93065302 -21.35210716 12.93065302 -16.73828125 7.1953125 C-11.91360935 2.06662018 -6.99108532 -0.07477097 0 0 Z " fill="#FEFCFC" transform="translate(91.73828125,244.8046875)"/>
<path d="M0 0 C-1.796875 3.8203125 -1.796875 3.8203125 -3.625 5.4375 C-6.8042218 6.19047359 -8.73005918 5.03473788 -11.66015625 3.8125 C-18.89317867 1.30086617 -25.82189781 1.69758986 -33 4 C-33 5.32 -33 6.64 -33 8 C-26.5026774 9.78343365 -20.23797031 10.59152155 -13.53515625 11.12304688 C-7.93421242 11.652608 -3.49656562 12.83630979 0.875 16.625 C2.65178532 20.37599124 2.64755859 23.93274997 2 28 C-0.46135493 32.35470487 -3.42365228 34.13210297 -8 36 C-19.22531868 38.78201139 -30.42076542 37.33938664 -41 33 C-41.99 32.34 -42.98 31.68 -44 31 C-42.75023244 27.34683329 -42.32901247 26.21934164 -39 24 C-36.87890625 24.64453125 -36.87890625 24.64453125 -34.5625 25.8125 C-26.81429189 29.65382822 -18.66363023 30.24363473 -10.25 28 C-9.13625 27.505 -9.13625 27.505 -8 27 C-7.67 25.35 -7.34 23.7 -7 22 C-13.71887981 18.59428682 -20.00733635 18.28219056 -27.4375 17.828125 C-32.3493061 17.46220248 -36.01447545 17.18683808 -40 14 C-42.53991871 11.03676151 -43.2568596 8.82240538 -43.0625 5 C-42.40134413 1.34986863 -41.03904816 -0.82335778 -37.93359375 -3.03515625 C-25.90949591 -9.03505961 -11.19722732 -6.22068184 0 0 Z " fill="#FFFFFF" transform="translate(634,344)"/>
<path d="M0 0 C-0.93411704 2.33529259 -1.65591521 3.74608915 -3.69921875 5.25390625 C-7.01285267 6.32844628 -8.8433738 5.28678493 -12.0625 4.0625 C-19.84119783 1.45208113 -26.17708965 1.92232173 -34 4 C-34 5.32 -34 6.64 -34 8 C-27.19675247 9.76380491 -20.46392848 10.56177409 -13.47314453 11.12646484 C-7.89799021 11.65142551 -3.47382954 12.8560144 0.875 16.625 C2.66875882 20.41182417 2.72609223 23.89971444 2 28 C-0.45476424 32.41857563 -2.64832177 34.17339584 -7.375 35.875 C-20.14275554 39.07646706 -32.58396806 37.30885975 -44 31 C-42.75023244 27.34683329 -42.32901247 26.21934164 -39 24 C-36.87890625 24.64453125 -36.87890625 24.64453125 -34.5625 25.8125 C-27.44676488 29.34026716 -19.45781312 30.56718507 -11.66015625 28.328125 C-9.57561809 27.45849108 -9.57561809 27.45849108 -7 26 C-7.10613836 23.54775306 -7.10613836 23.54775306 -8 21 C-13.35814978 17.87992513 -20.21868296 18.27470515 -26.25195312 17.87695312 C-31.45435831 17.4659446 -35.52612134 16.94240831 -40 14 C-42.67675977 9.98486035 -42.8128207 6.71933653 -42 2 C-38.33164388 -2.92607822 -34.57110837 -4.51488521 -28.6875 -5.625 C-18.48860897 -6.66217536 -8.78325503 -5.73239862 0 0 Z " fill="#FFFFFF" transform="translate(346,344)"/>
<path d="M0 0 C6.6515625 -0.061875 6.6515625 -0.061875 13.4375 -0.125 C14.81736084 -0.14320801 16.19722168 -0.16141602 17.61889648 -0.18017578 C35.31590352 -0.2594944 35.31590352 -0.2594944 42.4921875 5.46484375 C46.57281755 9.61947486 48.22222357 14.16691863 48.5 19.9375 C48.21271948 26.36663996 46.19240226 31.74834363 41.6875 36.375 C35.69348353 39.99928903 31.36206653 41.37785622 24.31640625 41.29296875 C23.03451416 41.28547607 21.75262207 41.2779834 20.43188477 41.27026367 C18.82498779 41.24295166 17.21809082 41.21563965 15.5625 41.1875 C10.426875 41.125625 5.29125 41.06375 0 41 C0 27.47 0 13.94 0 0 Z M7 7 C7 15.91 7 24.82 7 34 C10.465 34.0825 13.93 34.165 17.5 34.25 C18.57572266 34.28641602 19.65144531 34.32283203 20.75976562 34.36035156 C26.97953038 34.43150016 31.88780534 33.74964191 37 30 C39.52766491 26.62978012 40.23626381 24.11979576 39.9375 20 C39.18523034 15.90169756 37.83683677 13.12779439 35 10 C28.68278289 7.00726251 23.41501487 6.61805822 16.5 6.8125 C13.365 6.874375 10.23 6.93625 7 7 Z " fill="#FFFFFF" transform="translate(458,339)"/>
<path d="M0 0 C2.875 2.375 2.875 2.375 5 5 C5.763125 5.825 6.52625 6.65 7.3125 7.5 C9.94613019 12.9623441 9.91825928 18.05622869 9 24 C6.47766442 30.50096301 2.26051639 34.03679172 -3.8515625 37.125 C-11.49463148 40.23781355 -20.63658107 40.21478532 -28.375 37.4375 C-33.93920548 34.88195286 -38.44913725 31.16396749 -41.16796875 25.6171875 C-42.9217501 20.10059826 -42.69187363 14.24858929 -41 8.75 C-31.16383787 -4.77472293 -14.77011935 -8.49143566 0 0 Z M-31.4375 9.3125 C-33.87614924 12.4840766 -35.08728389 14.89765706 -35 19 C-32.9400885 24.93739198 -29.07324171 28.25572768 -23.6875 31.3125 C-16.39718092 33.17746535 -10.76545596 32.1924445 -4.1796875 28.55078125 C-0.64608137 26.03672815 0.51452485 24.10274089 2 20 C2.16122525 15.48569295 1.12980659 12.76106284 -1.5625 9.25 C-5.84314535 4.69285364 -10.39806722 3.27877851 -16.5 2.625 C-22.63902337 3.2827525 -27.16636461 4.69395169 -31.4375 9.3125 Z " fill="#FFFFFF" transform="translate(575,342)"/>
<path d="M0 0 C2.97 0 5.94 0 9 0 C9.84293125 9.15169697 10.13573406 18.20700493 10.09765625 27.39453125 C10.0962413 28.70789963 10.09482635 30.02126801 10.09336853 31.37443542 C10.0896019 34.81843063 10.07982378 38.26238174 10.06866455 41.70635986 C10.05832243 45.23978072 10.05384386 48.7732089 10.04882812 52.30664062 C10.03819446 59.20444671 10.02064729 66.10221668 10 73 C6.37 73 2.74 73 -1 73 C-1 63.76 -1 54.52 -1 45 C-5.29 45 -9.58 45 -14 45 C-14 40.38 -14 35.76 -14 31 C-9.71 31 -5.42 31 -1 31 C-1.01160156 29.51628906 -1.02320312 28.03257812 -1.03515625 26.50390625 C-1.04454235 24.52343877 -1.05364167 22.54296991 -1.0625 20.5625 C-1.07087891 19.58861328 -1.07925781 18.61472656 -1.08789062 17.61132812 C-1.10782078 11.65221031 -0.77609518 5.90932317 0 0 Z " fill="#FFFFFF" transform="translate(101,259)"/>
<path d="M0 0 C2.31 0 4.62 0 7 0 C7.00410889 0.82201904 7.00821777 1.64403809 7.01245117 2.4909668 C7.04539243 6.22387042 7.11604104 9.95514334 7.1875 13.6875 C7.19620117 15.62786133 7.19620117 15.62786133 7.20507812 17.60742188 C7.23408203 18.85458984 7.26308594 20.10175781 7.29296875 21.38671875 C7.3086792 22.53358154 7.32438965 23.68044434 7.34057617 24.86206055 C8.19335808 28.92011529 9.8232526 30.41711394 13 33 C20.67721382 35.55907127 28.84327886 34.51084433 36 31 C37.42267862 28.15464275 37.21971869 25.63781448 37.31640625 22.4609375 C37.37924805 20.50800781 37.37924805 20.50800781 37.44335938 18.515625 C37.48317299 17.13541955 37.52288522 15.75521117 37.5625 14.375 C37.60569407 12.98696585 37.64930865 11.59894472 37.69335938 10.2109375 C37.79972 6.80739744 37.90174714 3.40378222 38 0 C40.31 0 42.62 0 45 0 C45.09915614 4.60809095 45.17160182 9.21555592 45.21972656 13.82446289 C45.23979558 15.39097923 45.26705751 16.95742109 45.30175781 18.52368164 C45.35048754 20.78029794 45.3730147 23.03592083 45.390625 25.29296875 C45.41127014 25.98899704 45.43191528 26.68502533 45.45318604 27.40214539 C45.45480657 30.94390106 45.0875044 32.86346296 43.15917969 35.87231445 C36.67383041 42.26306739 28.59807369 42.26666778 20.02783203 42.24438477 C13.114189 42.12332876 8.0145182 41.24973311 2.8125 36.40625 C-1.96469395 30.66633177 -0.61907094 22.59680873 -0.375 15.5625 C-0.34486731 14.05278746 -0.3174973 12.54301711 -0.29296875 11.03320312 C-0.22722218 7.3542572 -0.12388573 3.67750033 0 0 Z " fill="#FFFFFF" transform="translate(400,339)"/>
<path d="M0 0 C14.52 0 29.04 0 44 0 C44 4.95 44 9.9 44 15 C29.48 15 14.96 15 0 15 C0 10.05 0 5.1 0 0 Z " fill="#ED2028" transform="translate(466,218)"/>
<path d="M0 0 C14.52 0 29.04 0 44 0 C44 4.95 44 9.9 44 15 C29.48 15 14.96 15 0 15 C0 10.05 0 5.1 0 0 Z " fill="#ED2028" transform="translate(139,218)"/>
<path d="M0 0 C14.52 0 29.04 0 44 0 C44 4.95 44 9.9 44 15 C29.48 15 14.96 15 0 15 C0 10.05 0 5.1 0 0 Z " fill="#ED2028" transform="translate(87,218)"/>
<path d="M0 0 C14.52 0 29.04 0 44 0 C44 4.95 44 9.9 44 15 C29.48 15 14.96 15 0 15 C0 10.05 0 5.1 0 0 Z " fill="#ED2028" transform="translate(246,200)"/>
<path d="M0 0 C14.52 0 29.04 0 44 0 C44 4.95 44 9.9 44 15 C29.48 15 14.96 15 0 15 C0 10.05 0 5.1 0 0 Z " fill="#ED2028" transform="translate(139,200)"/>
<path d="M0 0 C14.52 0 29.04 0 44 0 C44 4.95 44 9.9 44 15 C29.48 15 14.96 15 0 15 C0 10.05 0 5.1 0 0 Z " fill="#ED2028" transform="translate(87,200)"/>
<path d="M0 0 C14.52 0 29.04 0 44 0 C44 4.95 44 9.9 44 15 C29.48 15 14.96 15 0 15 C0 10.05 0 5.1 0 0 Z " fill="#ED2028" transform="translate(246,182)"/>
<path d="M0 0 C14.52 0 29.04 0 44 0 C44 4.95 44 9.9 44 15 C29.48 15 14.96 15 0 15 C0 10.05 0 5.1 0 0 Z " fill="#ED2028" transform="translate(139,182)"/>
<path d="M0 0 C14.52 0 29.04 0 44 0 C44 4.95 44 9.9 44 15 C29.48 15 14.96 15 0 15 C0 10.05 0 5.1 0 0 Z " fill="#ED2028" transform="translate(87,182)"/>
<path d="M0 0 C14.52 0 29.04 0 44 0 C44 4.95 44 9.9 44 15 C29.48 15 14.96 15 0 15 C0 10.05 0 5.1 0 0 Z " fill="#ED2028" transform="translate(246,164)"/>
<path d="M0 0 C14.52 0 29.04 0 44 0 C44 4.95 44 9.9 44 15 C29.48 15 14.96 15 0 15 C0 10.05 0 5.1 0 0 Z " fill="#ED2028" transform="translate(139,164)"/>
<path d="M0 0 C14.52 0 29.04 0 44 0 C44 4.95 44 9.9 44 15 C29.48 15 14.96 15 0 15 C0 10.05 0 5.1 0 0 Z " fill="#ED2028" transform="translate(139,146)"/>
<path d="M0 0 C14.52 0 29.04 0 44 0 C44 4.95 44 9.9 44 15 C29.48 15 14.96 15 0 15 C0 10.05 0 5.1 0 0 Z " fill="#ED2028" transform="translate(139,128)"/>
<path d="M0 0 C14.19 0 28.38 0 43 0 C43 4.95 43 9.9 43 15 C28.81 15 14.62 15 0 15 C0 10.05 0 5.1 0 0 Z " fill="#ED2028" transform="translate(417,218)"/>
<path d="M0 0 C14.19 0 28.38 0 43 0 C43 4.95 43 9.9 43 15 C28.81 15 14.62 15 0 15 C0 10.05 0 5.1 0 0 Z " fill="#ED2028" transform="translate(362,218)"/>
<path d="M0 0 C14.19 0 28.38 0 43 0 C43 4.95 43 9.9 43 15 C28.81 15 14.62 15 0 15 C0 10.05 0 5.1 0 0 Z " fill="#ED2028" transform="translate(304,218)"/>
<path d="M0 0 C14.19 0 28.38 0 43 0 C43 4.95 43 9.9 43 15 C28.81 15 14.62 15 0 15 C0 10.05 0 5.1 0 0 Z " fill="#ED2028" transform="translate(193,218)"/>
<path d="M0 0 C14.19 0 28.38 0 43 0 C43 4.95 43 9.9 43 15 C28.81 15 14.62 15 0 15 C0 10.05 0 5.1 0 0 Z " fill="#ED2028" transform="translate(417,200)"/>
<path d="M0 0 C14.19 0 28.38 0 43 0 C43 4.95 43 9.9 43 15 C28.81 15 14.62 15 0 15 C0 10.05 0 5.1 0 0 Z " fill="#ED2028" transform="translate(362,200)"/>
<path d="M0 0 C14.19 0 28.38 0 43 0 C43 4.95 43 9.9 43 15 C28.81 15 14.62 15 0 15 C0 10.05 0 5.1 0 0 Z " fill="#ED2028" transform="translate(304,200)"/>
<path d="M0 0 C14.19 0 28.38 0 43 0 C43 4.95 43 9.9 43 15 C28.81 15 14.62 15 0 15 C0 10.05 0 5.1 0 0 Z " fill="#ED2028" transform="translate(417,182)"/>
<path d="M0 0 C14.19 0 28.38 0 43 0 C43 4.95 43 9.9 43 15 C28.81 15 14.62 15 0 15 C0 10.05 0 5.1 0 0 Z " fill="#ED2028" transform="translate(362,182)"/>
<path d="M0 0 C14.19 0 28.38 0 43 0 C43 4.95 43 9.9 43 15 C28.81 15 14.62 15 0 15 C0 10.05 0 5.1 0 0 Z " fill="#ED2028" transform="translate(362,164)"/>
<path d="M0 0 C14.19 0 28.38 0 43 0 C43 4.95 43 9.9 43 15 C28.81 15 14.62 15 0 15 C0 10.05 0 5.1 0 0 Z " fill="#ED2028" transform="translate(362,146)"/>
<path d="M0 0 C14.19 0 28.38 0 43 0 C43 4.95 43 9.9 43 15 C29.14 15 15.28 15 1 15 C0 9 0 9 0 0 Z " fill="#ED2028" transform="translate(304,236)"/>
<path d="M0 0 C14.19 0 28.38 0 43 0 C43 3.63 43 7.26 43 11 C34.42638453 16.0004554 26.0294227 15.46061498 16.4375 15.25 C14.84051722 15.22990197 13.24350998 15.21165705 11.64648438 15.1953125 C7.76321623 15.15500873 3.88339417 15.07668798 0 15 C0 10.05 0 5.1 0 0 Z " fill="#ED2028" transform="translate(417,236)"/>
<path d="M0 0 C14.52 0 29.04 0 44 0 C44 4.62 44 9.24 44 14 C29.48 14 14.96 14 0 14 C0 9.38 0 4.76 0 0 Z " fill="#ED2028" transform="translate(466,290)"/>
<path d="M0 0 C13.86 0 27.72 0 42 0 C42 4.62 42 9.24 42 14 C28.14 14 14.28 14 0 14 C0 9.38 0 4.76 0 0 Z " fill="#ED2028" transform="translate(305,272)"/>
<path d="M0 0 C13.86 0 27.72 0 42 0 C42 4.62 42 9.24 42 14 C28.14 14 14.28 14 0 14 C0 9.38 0 4.76 0 0 Z " fill="#ED2028" transform="translate(305,254)"/>
<path d="M0 0 C14.85 0 29.7 0 45 0 C45 2.31 45 4.62 45 7 C39.06 7 33.12 7 27 7 C27 18.22 27 29.44 27 41 C24.36 41 21.72 41 19 41 C19 29.78 19 18.56 19 7 C12.73 7 6.46 7 0 7 C0 4.69 0 2.38 0 0 Z " fill="#FFFFFF" transform="translate(349,339)"/>
<path d="M0 0 C13.86 0 27.72 0 42 0 C42 4.62 42 9.24 42 14 C36.64323369 14.12353289 31.28729474 14.21430573 25.92944336 14.2746582 C24.10670533 14.29981397 22.28406828 14.33394285 20.46166992 14.37719727 C17.84268307 14.43780546 15.22502847 14.46619761 12.60546875 14.48828125 C11.78974899 14.51408768 10.97402924 14.5398941 10.1335907 14.56648254 C4.57136297 14.56924445 4.57136297 14.56924445 2.0246582 12.03198242 C1 9 1 9 0 0 Z " fill="#ED2028" transform="translate(305,290)"/>
<path d="M0 0 C13.86 0 27.72 0 42 0 C42 4.62 42 9.24 42 14 C36.9648329 14.19818991 31.93194594 14.34311223 26.89379883 14.43945312 C25.18148246 14.47961717 23.46943936 14.53416398 21.75805664 14.60351562 C7.61093432 15.16233312 7.61093432 15.16233312 3.77490234 12.39453125 C1.11087569 8.3682945 0.80856036 4.85136214 0 0 Z " fill="#ED2028" transform="translate(194,290)"/>
<path d="M0 0 C14.52 0 29.04 0 44 0 C44 4.95 44 9.9 44 15 C33.08153347 15.52380703 24.36984371 15.42358785 14.1796875 11.1796875 C9.51422004 9.44876468 4.94338624 9.11097398 0 9 C0 6.03 0 3.06 0 0 Z " fill="#ED2128" transform="translate(466,236)"/>
<path d="M0 0 C14.52 0 29.04 0 44 0 C44 4.95 44 9.9 44 15 C38.06 15 32.12 15 26 15 C26 10.71 26 6.42 26 2 C23.03 2 20.06 2 17 2 C17 6.29 17 10.58 17 15 C11.39 15 5.78 15 0 15 C0 10.05 0 5.1 0 0 Z " fill="#ED2329" transform="translate(246,218)"/>
<path d="M0 0 C14.19 0 28.38 0 43 0 C43 4.29 43 8.58 43 13 C41.63875 12.67 40.2775 12.34 38.875 12 C28.8224373 10.03783076 19.96485709 10.12219346 10.48828125 14.109375 C6.8408341 15.41489768 3.8341988 15.28937349 0 15 C0 10.05 0 5.1 0 0 Z " fill="#ED2128" transform="translate(193,236)"/>
<path d="M0 0 C14.52 0 29.04 0 44 0 C44 4.95 44 9.9 44 15 C29.26785714 15.66964286 29.26785714 15.66964286 24.25 12.5625 C17.07689379 8.22925836 8.13255324 9.09184608 0 9 C0 6.03 0 3.06 0 0 Z " fill="#ED2028" transform="translate(139,236)"/>
<path d="M0 0 C10.23 0 20.46 0 31 0 C31 4.62 31 9.24 31 14 C20.77 14 10.54 14 0 14 C0 9.38 0 4.76 0 0 Z " fill="#ED2028" transform="translate(374,290)"/>
<path d="M0 0 C10.23 0 20.46 0 31 0 C31 4.62 31 9.24 31 14 C20.77 14 10.54 14 0 14 C0 9.38 0 4.76 0 0 Z " fill="#ED2028" transform="translate(374,272)"/>
<path d="M0 0 C14.52 0 29.04 0 44 0 C44 2.97 44 5.94 44 9 C38.72 9 33.44 9 28 9 C28 10.98 28 12.96 28 15 C26.35 15 24.7 15 23 15 C23 13.02 23 11.04 23 9 C15.41 9 7.82 9 0 9 C0 6.03 0 3.06 0 0 Z " fill="#ED2128" transform="translate(87,236)"/>
<path d="M0 0 C9.9 0 19.8 0 30 0 C30 4.62 30 9.24 30 14 C20.1 14 10.2 14 0 14 C0 9.38 0 4.76 0 0 Z " fill="#ED2028" transform="translate(139,290)"/>
<path d="M0 0 C9.9 0 19.8 0 30 0 C30 4.62 30 9.24 30 14 C20.1 14 10.2 14 0 14 C0 9.38 0 4.76 0 0 Z " fill="#ED2028" transform="translate(139,272)"/>
<path d="M0 0 C10.23 0 20.46 0 31 0 C31 4.29 31 8.58 31 13 C20.77 13 10.54 13 0 13 C0 8.71 0 4.42 0 0 Z " fill="#ED2028" transform="translate(374,255)"/>
<path d="M0 0 C14.19 0 28.38 0 43 0 C43 2.97 43 5.94 43 9 C29.47 9 15.94 9 2 9 C2 10.98 2 12.96 2 15 C1.34 15 0.68 15 0 15 C0 10.05 0 5.1 0 0 Z " fill="#ED2028" transform="translate(362,236)"/>
<path d="M0 0 C0 2.97 0 5.94 0 9 C-12.87 9 -25.74 9 -39 9 C-32.23259762 1.10469723 -32.23259762 1.10469723 -28.8125 -0.875 C-27.83216797 -1.45894531 -27.83216797 -1.45894531 -26.83203125 -2.0546875 C-18.09387538 -6.5635014 -8.34104192 -4.13361369 0 0 Z " fill="#ED252B" transform="translate(236,259)"/>
<path d="M0 0 C18.97137497 -1.20483531 18.97137497 -1.20483531 24.0625 3.125 C27.09843506 6.33951948 27.47903129 8.43709387 29 13 C19.43 13 9.86 13 0 13 C0 8.71 0 4.42 0 0 Z " fill="#ED2229" transform="translate(139,255)"/>
<path d="M0 0 C7.48675421 0.08593118 14.29015949 3.31904565 19.78125 8.359375 C23.6875 12.81839623 23.6875 12.81839623 23.6875 14.4375 C14.1175 14.4375 4.5475 14.4375 -5.3125 14.4375 C-5.3125 0.27960526 -5.3125 0.27960526 0 0 Z " fill="#ED262C" transform="translate(471.3125,253.5625)"/>
<path d="M0 0 C2.31 0 4.62 0 7 0 C7 13.53 7 27.06 7 41 C4.69 41 2.38 41 0 41 C0 27.47 0 13.94 0 0 Z " fill="#FFFFFF" transform="translate(516,339)"/>
<path d="M0 0 C0 4.62 0 9.24 0 14 C-1.65 14 -3.3 14 -5 14 C-5 11.03 -5 8.06 -5 5 C-7.97 5 -10.94 5 -14 5 C-14 7.97 -14 10.94 -14 14 C-18.62 14 -23.24 14 -28 14 C-28.09765625 4.72265625 -28.09765625 4.72265625 -28 2 C-26.37530234 0.37530234 -24.50937185 0.77657233 -22.265625 0.68359375 C-21.29882812 0.64169922 -20.33203125 0.59980469 -19.3359375 0.55664062 C-17.80839844 0.49766602 -17.80839844 0.49766602 -16.25 0.4375 C-14.74566406 0.37272461 -14.74566406 0.37272461 -13.2109375 0.30664062 C-8.799031 0.12232358 -4.41764251 0 0 0 Z " fill="#ED2A2E" transform="translate(115,254)"/>
<path d="M0 0 C5.61 0 11.22 0 17 0 C17 4.95 17 9.9 17 15 C11.39 15 5.78 15 0 15 C0 10.05 0 5.1 0 0 Z " fill="#ED242A" transform="translate(246,236)"/>
<path d="M0 0 C5.94 0 11.88 0 18 0 C18 4.62 18 9.24 18 14 C12.06 14 6.12 14 0 14 C0 9.38 0 4.76 0 0 Z " fill="#ED262C" transform="translate(272,290)"/>
<path d="M0 0 C5.94 0 11.88 0 18 0 C18 4.62 18 9.24 18 14 C12.06 14 6.12 14 0 14 C0 9.38 0 4.76 0 0 Z " fill="#ED262C" transform="translate(272,272)"/>
<path d="M0 0 C5.61 0 11.22 0 17 0 C17 4.62 17 9.24 17 14 C11.39 14 5.78 14 0 14 C0 9.38 0 4.76 0 0 Z " fill="#ED242A" transform="translate(246,290)"/>
<path d="M0 0 C5.94 0 11.88 0 18 0 C18 4.29 18 8.58 18 13 C12.06 13 6.12 13 0 13 C0 8.71 0 4.42 0 0 Z " fill="#ED262C" transform="translate(272,255)"/>
<path d="M0 0 C8.25 0 16.5 0 25 0 C22.03 3.96 22.03 3.96 19 8 C17.94408082 9.97104913 16.91760331 11.96088152 16 14 C12.7 14 9.4 14 6 14 C5.47599609 12.73542969 5.47599609 12.73542969 4.94140625 11.4453125 C4.48636719 10.34960938 4.03132813 9.25390625 3.5625 8.125 C3.11003906 7.03445313 2.65757812 5.94390625 2.19140625 4.8203125 C1.50456537 3.19441376 0.78934113 1.57868226 0 0 Z " fill="#ED242A" transform="translate(421,254)"/>
<path d="M0 0 C4.62 0 9.24 0 14 0 C14 4.62 14 9.24 14 14 C9.38 14 4.76 14 0 14 C0 9.38 0 4.76 0 0 Z " fill="#ED282E" transform="translate(87,290)"/>
<path d="M0 0 C5.61 0 11.22 0 17 0 C17 4.62 17 9.24 17 14 C11.22895938 14.87440009 11.22895938 14.87440009 8 14 C5.31465761 10.99376763 3.6825178 7.64085818 2 4 C1.34 2.68 0.68 1.36 0 0 Z " fill="#ED292C" transform="translate(246,254)"/>
<path d="M0 0 C4.95 0 9.9 0 15 0 C15 4.62 15 9.24 15 14 C12.07143752 14.29781991 9.85463753 14.51372883 7 14 C3.54048375 10.76610437 1.35077187 7.54350537 0 3 C0 2.01 0 1.02 0 0 Z " fill="#ED2128" transform="translate(445,290)"/>
<path d="M0 0 C13.53 0 27.06 0 41 0 C41 1.32 41 2.64 41 4 C27.14 4 13.28 4 -1 4 C-0.67 2.68 -0.34 1.36 0 0 Z " fill="#EE3332" transform="translate(195,272)"/>
<path d="M0 0 C5.94 0 11.88 0 18 0 C18 2.97 18 5.94 18 9 C12.06 9 6.12 9 0 9 C0 6.03 0 3.06 0 0 Z " fill="#ED242A" transform="translate(272,236)"/>
<path d="M0 0 C0.99 0 1.98 0 3 0 C3 4.62 3 9.24 3 14 C-11.52 14 -26.04 14 -41 14 C-41 13.01 -41 12.02 -41 11 C-27.14 11 -13.28 11 1 11 C0.505 5.555 0.505 5.555 0 0 Z " fill="#EF413F" transform="translate(507,272)"/>
<path d="M0 0 C4.62 0 9.24 0 14 0 C14 4.62 14 9.24 14 14 C9.38 14 4.76 14 0 14 C0 13.34 0 12.68 0 12 C2.64 12 5.28 12 8 12 C8 9.36 8 6.72 8 4 C5.69 4 3.38 4 1 4 C0.67 2.68 0.34 1.36 0 0 Z " fill="#EF3B3A" transform="translate(87,272)"/>
<path d="M0 0 C4.62 0 9.24 0 14 0 C14 4.62 14 9.24 14 14 C12.35 14 10.7 14 9 14 C8.68546875 13.40832031 8.3709375 12.81664062 8.046875 12.20703125 C7.61890625 11.41683594 7.1909375 10.62664062 6.75 9.8125 C6.33234375 9.03519531 5.9146875 8.25789063 5.484375 7.45703125 C3.74703831 4.46015864 3.74703831 4.46015864 0 0 Z " fill="#ED252B" transform="translate(496,254)"/>
<path d="M0 0 C1.98 0 3.96 0 6 0 C6.34933594 0.84304688 6.69867188 1.68609375 7.05859375 2.5546875 C7.51363281 3.65039062 7.96867187 4.74609375 8.4375 5.875 C9.11619141 7.51082031 9.11619141 7.51082031 9.80859375 9.1796875 C10.49543463 10.80558624 11.21065887 12.42131774 12 14 C8.04 14 4.08 14 0 14 C0 9.38 0 4.76 0 0 Z " fill="#ED262B" transform="translate(428,290)"/>
<path d="M0 0 C3.63 0 7.26 0 11 0 C11 4.62 11 9.24 11 14 C9.02 14 7.04 14 5 14 C4.80664062 13.32453125 4.61328125 12.6490625 4.4140625 11.953125 C4.15367187 11.06109375 3.89328125 10.1690625 3.625 9.25 C3.36976563 8.36828125 3.11453125 7.4865625 2.8515625 6.578125 C1.96860208 3.69699893 1.96860208 3.69699893 0 0 Z " fill="#ED242A" transform="translate(172,254)"/>
<path d="M0 0 C2.31 0 4.62 0 7 0 C7 4.62 7 9.24 7 14 C1.39 14 -4.22 14 -10 14 C-9.67 13.34 -9.34 12.68 -9 12 C-5.7 12 -2.4 12 1 12 C0.67 8.04 0.34 4.08 0 0 Z " fill="#EF3C39" transform="translate(256,272)"/>
<path d="M0 0 C2.31 0 4.62 0 7 0 C7 4.62 7 9.24 7 14 C4.69 14 2.38 14 0 14 C0 9.38 0 4.76 0 0 Z " fill="#EE3134" transform="translate(124,290)"/>
<path d="M0 0 C2.31 0 4.62 0 7 0 C7 4.62 7 9.24 7 14 C4.69 14 2.38 14 0 14 C0 9.38 0 4.76 0 0 Z " fill="#EE3134" transform="translate(124,272)"/>
<path d="M0 0 C10.23 0 20.46 0 31 0 C31 0.99 31 1.98 31 3 C20.77 3 10.54 3 0 3 C0 2.01 0 1.02 0 0 Z " fill="#ED2028" transform="translate(466,272)"/>
<path d="M0 0 C2.31 0 4.62 0 7 0 C7 4.29 7 8.58 7 13 C4.69 13 2.38 13 0 13 C0 8.71 0 4.42 0 0 Z " fill="#EE3134" transform="translate(124,255)"/>
<path d="M0 0 C0 3.63 0 7.26 0 11 C-3.96 11 -7.92 11 -12 11 C-9.7389517 5.34737924 -9.7389517 5.34737924 -6 2.6875 C-5.29875 2.17574219 -4.5975 1.66398437 -3.875 1.13671875 C-2 0 -2 0 0 0 Z " fill="#ED262B" transform="translate(460,257)"/>
<path d="M0 0 C1.98 0 3.96 0 6 0 C6 4.62 6 9.24 6 14 C4.02 14 2.04 14 0 14 C0 9.38 0 4.76 0 0 Z " fill="#ED2B2F" transform="translate(428,272)"/>
<path d="M0 0 C1.65 0 3.3 0 5 0 C5 4.62 5 9.24 5 14 C3.35 14 1.7 14 0 14 C0 9.38 0 4.76 0 0 Z " fill="#EE3839" transform="translate(178,290)"/>
<path d="M0 0 C1.65 0 3.3 0 5 0 C5 4.62 5 9.24 5 14 C3.35 14 1.7 14 0 14 C0 9.38 0 4.76 0 0 Z " fill="#EE2E2F" transform="translate(110,290)"/>
<path d="M0 0 C1.65 0 3.3 0 5 0 C5 4.62 5 9.24 5 14 C3.35 14 1.7 14 0 14 C0 9.38 0 4.76 0 0 Z " fill="#EE3032" transform="translate(178,272)"/>
<path d="M0 0 C1.65 0 3.3 0 5 0 C5 4.62 5 9.24 5 14 C3.35 14 1.7 14 0 14 C0 9.38 0 4.76 0 0 Z " fill="#EE2E2F" transform="translate(110,272)"/>
<path d="M0 0 C5.61 0 11.22 0 17 0 C17 0.99 17 1.98 17 3 C11.39 3 5.78 3 0 3 C0 2.01 0 1.02 0 0 Z " fill="#F04E49" transform="translate(443,283)"/>
<path d="M0 0 C4.95 0 9.9 0 15 0 C15 0.99 15 1.98 15 3 C10.05 3 5.1 3 0 3 C0 2.01 0 1.02 0 0 Z " fill="#ED2129" transform="translate(445,272)"/>
</svg>
